<?xml version="1.0" encoding="iso-8859-1"?>
<!-- Uploaded to: SVG Repo, www.svgrepo.com, Generator: SVG Repo Mixer Tools -->
<svg version="1.1" id="Layer_1" xmlns="http://www.w3.org/2000/svg" xmlns:xlink="http://www.w3.org/1999/xlink" 
	 viewBox="0 0 505 505" xml:space="preserve">
<ellipse style="fill:#F1543F;" cx="252.5" cy="252.5" rx="246.9" ry="252.5"/>
<polygon style="fill:#FFFFFF;" points="331.8,84.2 331.8,136.6 384.1,136.6 384.1,409.3 136.6,409.3 136.6,84.2 "/>
<g>
	<polygon style="fill:#E6E9EE;" points="331.8,84.2 384.1,136.6 331.8,136.6 	"/>
	<rect x="165.8" y="110.4" style="fill:#E6E9EE;" width="88" height="11.2"/>
	<rect x="165.8" y="136.6" style="fill:#E6E9EE;" width="61.1" height="11.2"/>
</g>
<path style="fill:#54C0EB;" d="M251.3,308.2v-75.7c-38.9,1.3-70,33.2-70,72.4c0,40,32.4,72.4,72.4,72.4c38.9,0,70.6-30.6,72.4-69.1
	L251.3,308.2L251.3,308.2z"/>
<g>
	<path style="fill:#324A5E;" d="M307.8,213.1c0,18.2-6.1,44.5-13.6,44.5s-13.6-26.3-13.6-44.5s6.1-21.5,13.6-21.5
		C301.7,191.7,307.8,194.9,307.8,213.1z"/>
	<circle style="fill:#324A5E;" cx="294.1" cy="275.1" r="10.8"/>
</g>
</svg>