<svg fill="#9F9f9e" viewBox="0 0 20.40 20.40" xmlns="http://www.w3.org/2000/svg" class="cf-icon-svg" stroke="#9F9f9e"
     stroke-width="0.2652">
    <g id="SVGRepo_bgCarrier" stroke-width="0"></g>
    <g id="SVGRepo_tracerCarrier" stroke-linecap="round" stroke-linejoin="round"></g>
    <g id="SVGRepo_iconCarrier">
        <path d="M16.417 10.283A7.917 7.917 0 1 1 8.5 2.366a7.916 7.916 0 0 1 7.917 7.917zm-6.804.01 3.032-3.033a.792.792 0 0 0-1.12-1.12L8.494 9.173 5.46 6.14a.792.792 0 0 0-1.12 1.12l3.034 3.033-3.033 3.033a.792.792 0 0 0 1.12 1.119l3.032-3.033 3.033 3.033a.792.792 0 0 0 1.12-1.12z"></path>
    </g>
</svg>