<?xml version="1.0" encoding="iso-8859-1"?>
<!-- Uploaded to: SVG Repo, www.svgrepo.com, Generator: SVG Repo Mixer Tools -->
<svg height="800px" width="800px" version="1.1" id="Layer_1" xmlns="http://www.w3.org/2000/svg" xmlns:xlink="http://www.w3.org/1999/xlink" 
	 viewBox="0 0 505 505" xml:space="preserve">
<circle style="fill:#90DFAA;" cx="252.5" cy="252.5" r="252.5"/>
<polygon style="fill:#FFFFFF;" points="179.4,86.1 179.4,139.7 125.9,139.7 125.9,418.9 379.1,418.9 379.1,86.1 "/>
<g>
	<polygon style="fill:#E6E9EE;" points="179.4,86.1 125.9,139.7 179.4,139.7 	"/>
	<polygon style="fill:#E6E9EE;" points="175.1,362.1 175.1,195.6 163.4,195.6 163.4,373.7 341.6,373.7 341.6,362.1 	"/>
</g>
<polygon style="fill:#FF7058;" points="336.9,244.3 323.1,221.3 309.2,244.3 316.9,244.3 316.9,349.5 329.3,349.5 329.3,244.3 "/>
<polygon style="fill:#ACB3BA;" points="284.9,244.3 271,267.2 278.7,267.2 278.7,349.5 291.1,349.5 291.1,267.2 298.8,267.2 "/>
<polygon style="fill:#84DBFF;" points="246.7,267.2 232.8,290.2 240.5,290.2 240.5,349.5 252.9,349.5 252.9,290.2 260.6,290.2 "/>
<polygon style="fill:#FFD05B;" points="208.5,290.2 194.7,313.1 202.3,313.1 202.3,349.5 214.7,349.5 214.7,313.1 222.4,313.1 "/>
</svg>