<svg height="128" width="128" xmlns="http://www.w3.org/2000/svg"><path d="m64 21.59375c-24.466421 0-46.563923 10.339309-62.1875 26.84375l9.5 8.84375c13.213102-13.942726 31.903813-22.625 52.6875-22.625 20.78015 0 39.46487 8.686429 52.6875 22.625l9.5-8.84375c-15.62357-16.504442-37.721079-26.84375-62.1875-26.84375zm0 23.375c-17.716039 0-33.709699 7.472271-45.0625 19.40625l9.46875 8.84375c8.949004-9.365849 21.563741-15.1875 35.59375-15.1875 14.030006 0 26.637794 5.821651 35.59375 15.1875l9.5-8.84375c-11.360225-11.938756-27.373657-19.40625-45.09375-19.40625zm0 25.1875c-10.451019 0-19.927466 4.365019-26.6875 11.375l9.53125 8.875c4.348301-4.43638 10.397167-7.1875 17.15625-7.1875 6.752602 0 12.801986 2.758625 17.15625 7.1875l9.53125-8.875c-6.760037-7.00998-16.236482-11.375-26.6875-11.375zm0 22.71875c-3.932712 0-7.465345 1.59908-10.0625 4.15625l10.0625 9.375 10.0625-9.375c-2.597054-2.556468-6.130398-4.15625-10.0625-4.15625z" fill="#333" fill-opacity=".3"/><path d="m27.329493 73.341002c-15.09189 0-27.329493 12.237598-27.329493 27.329498s12.237603 27.3295 27.329493 27.3295c15.0919 0 27.32951-12.2376 27.32951-27.3295s-12.23761-27.329498-27.32951-27.329498zm-13.33873 9.147091 13.33873 13.338732 13.33874-13.338732 4.84367 4.843673-13.33874 13.338734 13.33874 13.33874-4.84367 4.84367-13.33874-13.33874-13.33873 13.33874-4.84367-4.84367 13.338734-13.33874-13.338734-13.338734z" fill="#bf0000"/></svg>