<svg fill="#9f9f9e" viewBox="0 0 1024 1024" xmlns="http://www.w3.org/2000/svg" class="icon">
    <g id="SVGRepo_bgCarrier" stroke-width="0"></g>
    <g id="SVGRepo_tracerCarrier" stroke-linecap="round" stroke-linejoin="round"></g>
    <g id="SVGRepo_iconCarrier">
        <path d="M156 732h70.3c4.8 0 9.3 2.1 12.3 5.8 7 8.5 14.5 16.7 22.4 24.5a353.84 353.84 0 0 0 112.7 75.9A352.8 352.8 0 0 0 512 866c47.9 0 94.3-9.4 137.9-27.8a353.84 353.84 0 0 0 112.7-75.9 353.28 353.28 0 0 0 76-112.5c18.4-43.6 27.8-90 27.8-137.9s-9.4-94.2-27.8-137.8c-17.8-42.1-43.4-80-76-112.5s-70.5-58.1-112.7-75.9c-43.6-18.4-90-27.8-137.9-27.8-47.9 0-94.3 9.3-137.9 27.8-42.2 17.8-80.1 43.4-112.7 75.9-7.9 7.9-15.3 16.1-22.4 24.5-3 3.7-7.6 5.8-12.3 5.8H156c-6.3 0-10.2-7-6.7-12.3C226 160.5 360.2 81.6 512.7 82 752.3 82.6 944.4 277.1 942 516.4 939.6 751.9 747.8 942 511.6 942c-152.1 0-285.7-78.8-362.3-197.7-3.4-5.3.4-12.3 6.7-12.3zm-88.9-226.3L209 393.7c5.3-4.2 13-.4 13 6.3v76h314c4.4 0 8 3.6 8 8v56c0 4.4-3.6 8-8 8H230v76c0 6.7-7.8 10.5-13 6.3L75.1 524.2a8 8 0 0 1 0-12.6z"></path>
    </g>
</svg>
